<?xml version="1.0" standalone="no"?>
<!DOCTYPE svg PUBLIC "-//W3C//DTD SVG 20010904//EN"
 "http://www.w3.org/TR/2001/REC-SVG-20010904/DTD/svg10.dtd">
<svg version="1.0" xmlns="http://www.w3.org/2000/svg"
 width="500.000000pt" height="500.000000pt" viewBox="0 0 500.000000 500.000000"
 preserveAspectRatio="xMidYMid meet">

<g transform="translate(0.000000,500.000000) scale(0.100000,-0.100000)"
fill="#000000" stroke="none">
<path d="M2067 3222 c-626 -626 -582 -563 -469 -675 112 -111 51 -152 655 451
285 284 527 532 538 549 28 45 19 65 -59 146 -53 53 -73 67 -97 67 -26 0 -94
-64 -568 -538z"/>
<path d="M2709 3152 c-111 -109 -130 -76 269 -475 398 -398 365 -379 475 -269
109 109 127 76 -271 474 -397 397 -362 378 -473 270z"/>
<path d="M2162 2608 c-139 -139 -260 -265 -268 -280 -22 -42 -9 -70 66 -142
50 -49 75 -66 96 -66 22 0 61 33 204 175 100 99 185 175 195 175 11 0 87 -68
175 -155 188 -187 183 -185 282 -91 74 71 87 99 65 142 -9 16 -121 134 -249
262 -225 223 -235 232 -273 232 -38 0 -48 -9 -293 -252z"/>
<path d="M1225 1825 c-40 -20 -55 -46 -61 -103 -6 -56 18 -110 56 -129 34 -17
115 -16 149 1 25 13 51 52 51 76 0 6 -17 10 -38 10 -26 0 -41 -6 -50 -20 -14
-22 -51 -27 -70 -8 -17 17 -15 103 2 118 22 17 60 8 71 -17 8 -18 18 -23 48
-23 38 0 39 1 32 28 -3 15 -17 38 -30 51 -30 31 -115 39 -160 16z"/>
<path d="M1524 1831 c-84 -36 -97 -185 -21 -231 43 -27 131 -27 173 -1 63 39
71 148 15 204 -25 26 -39 31 -88 34 -32 1 -68 -1 -79 -6z m100 -64 c21 -15 25
-89 6 -112 -15 -18 -61 -20 -78 -3 -19 19 -15 105 6 117 23 14 45 13 66 -2z"/>
<path d="M1780 1711 l0 -131 70 0 c117 0 170 38 170 123 0 94 -40 128 -162
135 l-78 5 0 -132z m148 42 c29 -40 1 -113 -44 -113 -23 0 -24 2 -24 71 l0 71
28 -6 c15 -4 33 -14 40 -23z"/>
<path d="M2070 1710 l0 -130 110 0 110 0 0 30 0 30 -70 0 c-63 0 -70 2 -70 20
0 18 7 20 60 20 l60 0 0 30 0 30 -60 0 c-53 0 -60 2 -60 20 0 18 7 20 71 20
l70 0 -3 28 -3 27 -107 3 -108 3 0 -131z"/>
<path d="M2460 1710 l0 -130 40 0 40 0 0 50 0 50 45 0 45 0 0 -50 0 -50 45 0
46 0 -3 128 -3 127 -40 0 -40 0 -3 -47 -3 -48 -45 0 -44 0 0 50 0 50 -40 0
-40 0 0 -130z"/>
<path d="M2823 1824 c-82 -40 -84 -187 -3 -229 39 -20 125 -19 160 2 74 43 74
171 1 220 -41 27 -110 30 -158 7z m111 -60 c19 -18 22 -94 4 -112 -20 -20 -65
-14 -82 10 -46 66 24 157 78 102z"/>
<path d="M3080 1750 c0 -49 5 -101 12 -115 17 -37 57 -55 122 -55 47 0 61 4
88 29 31 28 32 29 32 127 l1 99 -40 0 -40 0 -5 -95 -5 -95 -30 -3 c-44 -5 -55
18 -55 115 l0 83 -40 0 -40 0 0 -90z"/>
<path d="M3423 1820 c-29 -17 -33 -25 -33 -60 0 -35 5 -43 32 -60 17 -10 49
-22 70 -25 46 -8 56 -20 28 -35 -21 -11 -60 2 -60 20 0 6 -18 10 -40 10 -43 0
-46 -5 -29 -43 15 -34 49 -47 120 -47 50 0 64 4 84 25 27 27 33 71 12 98 -7
10 -39 26 -71 35 -33 10 -61 23 -63 29 -6 17 34 22 54 7 10 -7 33 -14 51 -14
26 0 32 4 32 20 0 30 -56 60 -110 60 -27 0 -58 -8 -77 -20z"/>
<path d="M3660 1710 l0 -130 110 0 110 0 0 30 0 30 -70 0 c-63 0 -70 2 -70 20
0 18 7 20 60 20 l60 0 0 30 0 30 -61 0 c-52 0 -60 2 -57 18 3 14 16 18 71 20
67 3 67 3 67 32 l0 30 -110 0 -110 0 0 -130z"/>
</g>
</svg>
