<?xml version="1.0" standalone="no"?>
<!DOCTYPE svg PUBLIC "-//W3C//DTD SVG 20010904//EN"
 "http://www.w3.org/TR/2001/REC-SVG-20010904/DTD/svg10.dtd">
<svg version="1.0" xmlns="http://www.w3.org/2000/svg"
 width="500.000000pt" height="500.000000pt" viewBox="0 0 500.000000 500.000000"
 preserveAspectRatio="xMidYMid meet">

<g transform="translate(0.000000,500.000000) scale(0.100000,-0.100000)"
fill="#000000" stroke="none">
<path d="M2585 3310 c-11 -5 -260 -248 -552 -542 -452 -453 -533 -538 -533
-562 0 -21 16 -45 66 -96 72 -75 100 -88 142 -66 15 8 262 250 550 538 608
610 567 550 455 660 -71 69 -95 82 -128 68z"/>
<path d="M2695 2719 c-64 -59 -88 -99 -80 -132 4 -13 158 -175 344 -360 287
-287 341 -337 366 -337 42 0 175 134 175 176 0 24 -49 77 -338 366 -320 321
-339 338 -374 338 -30 0 -46 -9 -93 -51z"/>
<path d="M2128 2152 c-318 -318 -306 -295 -201 -403 103 -107 99 -108 308 101
130 130 176 170 195 170 19 0 60 -35 170 -146 80 -80 155 -150 168 -155 33
-13 63 3 131 69 54 53 61 65 61 98 0 37 -11 49 -248 286 -228 228 -251 248
-282 248 -32 0 -56 -21 -302 -268z"/>
</g>
</svg>
